Coordinates
version=1
nRows=32
nColumns=12
inDegrees=yes

Units are S.I. units (second, meters, Newtons, ...)
Angles are in degrees

endheader
time	SC_y	SC_z	SC_x	AC_y	AC_z	AC_x	GH_y	GH_z	GH_yy	EL_x	PS_y
       0.0              -33.01          24.87          26.79          41.42          -18.6         -17.88          162.6          34.13          146.0          133.1          152.7
   0.03506               -33.0          24.87          26.78          41.42          -18.6         -17.87          162.6          34.12          146.0          133.1          152.7
   0.07012               -33.0          24.86          26.78          41.42          -18.6         -17.87          162.6          34.11          146.0          133.1          152.6
    0.1052               -33.0          24.86          26.78          41.42          -18.6         -17.86          162.6          34.11          146.0          133.1          152.6
    0.1402               -33.0          24.85          26.78          41.42         -18.59         -17.85          162.6           34.1          146.0          133.1          152.6
    0.1753               -33.0          24.85          26.78          41.43         -18.59         -17.85          162.6          34.09          146.0          133.1          152.6
    0.2104               -33.0          24.84          26.78          41.43         -18.59         -17.84          162.6          34.08          146.0          133.0          152.6
    0.2454               -33.0          24.84          26.78          41.43         -18.59         -17.83          162.6          34.07          146.0          133.0          152.6
    0.2805               -33.0          24.83          26.78          41.43         -18.59         -17.82          162.6          34.05          146.0          133.0          152.5
    0.3155              -32.99          24.82          26.78          41.43         -18.58         -17.81          162.6          34.04          146.0          133.0          152.5
    0.3506              -32.99          24.82          26.78          41.43         -18.58          -17.8          162.6          34.03          146.0          133.0          152.5
    0.3857              -32.99          24.81          26.78          41.43         -18.58         -17.79          162.5          34.02          146.0          133.0          152.5
    0.4207              -32.99           24.8          26.78          41.44         -18.58         -17.78          162.5           34.0          146.0          133.0          152.4
    0.4558              -32.98          24.79          26.78          41.44         -18.57         -17.77          162.5          33.98          146.0          132.9          152.4
    0.4908              -32.98          24.78          26.78          41.44         -18.57         -17.76          162.5          33.97          146.0          132.9          152.4
    0.5259              -32.98          24.77          26.78          41.44         -18.57         -17.74          162.5          33.95          146.0          132.9          152.3
     0.561              -32.98          24.76          26.78          41.45         -18.56         -17.73          162.5          33.92          145.9          132.9          152.3
     0.596              -32.97          24.74          26.78          41.45         -18.56         -17.71          162.4           33.9          145.9          132.8          152.3
    0.6311              -32.97          24.73          26.78          41.45         -18.56         -17.69          162.4          33.88          145.9          132.8          152.2
    0.6661              -32.97          24.71          26.77          41.46         -18.55         -17.67          162.4          33.85          145.9          132.8          152.2
    0.7012              -32.96          24.69          26.77          41.46         -18.55         -17.65          162.4          33.82          145.9          132.7          152.1
    0.7363              -32.96          24.68          26.77          41.46         -18.54         -17.63          162.3          33.79          145.9          132.7          152.0
    0.7713              -32.95          24.65          26.77          41.47         -18.54          -17.6          162.3          33.75          145.9          132.6          152.0
    0.8064              -32.94          24.63          26.77          41.47         -18.53         -17.57          162.3          33.71          145.9          132.6          151.9
    0.8414              -32.94           24.6          26.77          41.48         -18.52         -17.54          162.2          33.66          145.9          132.5          151.8
    0.8765              -32.93          24.58          26.76          41.49         -18.51          -17.5          162.2          33.61          145.8          132.5          151.7
    0.9116              -32.92          24.54          26.76          41.49          -18.5         -17.46          162.1          33.56          145.8          132.4          151.6
    0.9466              -32.91          24.51          26.76           41.5         -18.49         -17.41          162.1          33.49          145.8          132.3          151.5
    0.9817               -32.9          24.46          26.76          41.51         -18.48         -17.36          162.0          33.42          145.8          132.2          151.4
     1.017              -32.89          24.42          26.75          41.52         -18.47          -17.3          161.9          33.34          145.7          132.1          151.2
     1.052              -32.88          24.36          26.75          41.53         -18.45         -17.23          161.9          33.24          145.7          132.0          151.0
     1.087              -32.86           24.3          26.75          41.55         -18.43         -17.16          161.8          33.14          145.7          131.9          150.8
